<svg xmlns="http://www.w3.org/2000/svg" viewBox="0 0 32 32" fill="none">
  <rect width="32" height="32" rx="8" fill="#1a1a2e"/>
  <path d="M16 6c-3 0-5.5 1.2-7 3.5C7.5 11.8 7 14 7 16c0 2.5 1 4.5 2.5 6 1 1 2.2 1.8 3.5 2.2V26a1 1 0 002 0v-1.5c.3 0 .7.05 1 .05s.7-.02 1-.05V26a1 1 0 002 0v-1.8c1.3-.4 2.5-1.2 3.5-2.2 1.5-1.5 2.5-3.5 2.5-6 0-2-.5-4.2-2-6.5C21.5 7.2 19 6 16 6z" fill="none" stroke="#c47a1e" stroke-width="1.5"/>
  <circle cx="16" cy="14" r="2.5" fill="#c47a1e"/>
  <path d="M16 16.5v3M13 13l-2.5-2M19 13l2.5-2M13 15.5l-3 1.5M19 15.5l3 1.5" stroke="#c47a1e" stroke-width="1.2" stroke-linecap="round"/>
  <circle cx="10" cy="10.5" r="1" fill="#c47a1e" opacity="0.7"/>
  <circle cx="22" cy="10.5" r="1" fill="#c47a1e" opacity="0.7"/>
  <circle cx="9.5" cy="17.5" r="1" fill="#c47a1e" opacity="0.7"/>
  <circle cx="22.5" cy="17.5" r="1" fill="#c47a1e" opacity="0.7"/>
  <circle cx="16" cy="20" r="1" fill="#c47a1e" opacity="0.7"/>
</svg>
